<?xml version="1.0" standalone="no"?>
<!DOCTYPE svg PUBLIC "-//W3C//DTD SVG 20010904//EN"
 "http://www.w3.org/TR/2001/REC-SVG-20010904/DTD/svg10.dtd">
<svg version="1.0" xmlns="http://www.w3.org/2000/svg"
 width="300.000000pt" height="150.000000pt" viewBox="0 0 300.000000 150.000000"
 preserveAspectRatio="xMidYMid meet">
<metadata>
Created by potrace 1.10, written by Peter Selinger 2001-2011
</metadata>
<g transform="translate(0.000000,150.000000) scale(0.100000,-0.100000)"
fill="#000000" stroke="none">
<path d="M2484 1113 c-4 -13 -10 -20 -15 -17 -11 6 -12 -9 -2 -20 4 -3 8 -13
9 -20 2 -11 -4 -12 -27 -4 -16 5 -32 14 -35 19 -3 5 -21 7 -40 3 -21 -4 -40
-2 -49 6 -11 10 -18 9 -31 -5 -10 -10 -27 -15 -40 -12 -13 2 -22 1 -19 -2 2
-4 -5 -18 -15 -31 -18 -24 -23 -9 -7 18 5 6 4 12 -1 12 -5 0 -14 -10 -20 -22
-7 -16 -11 -18 -11 -7 -1 17 -47 44 -70 40 -7 -1 -10 2 -6 8 3 6 1 11 -4 11
-6 0 -11 -3 -11 -8 0 -4 -13 -7 -30 -7 -18 -1 -30 4 -30 12 0 17 -15 17 -29
-1 -6 -7 -29 -14 -51 -14 -22 -1 -49 -4 -60 -7 -11 -4 -20 -2 -20 4 0 6 -5 11
-11 11 -5 0 -7 -4 -4 -10 4 -6 -6 -10 -21 -10 -27 0 -27 -1 -8 -15 11 -8 14
-15 7 -15 -7 0 -13 -11 -13 -24 0 -30 -22 -49 -46 -39 -16 6 -17 5 -4 -9 8 -9
18 -14 22 -12 11 7 17 -28 14 -98 -1 -36 2 -64 6 -62 4 3 8 -1 8 -10 0 -8 5
-16 11 -18 5 -2 7 -11 3 -22 -5 -14 -9 -15 -15 -4 -6 8 -6 -1 -3 -22 4 -19 7
-39 8 -44 0 -5 -5 -11 -11 -13 -7 -3 -13 3 -13 12 0 9 -4 13 -10 10 -5 -3 -10
-1 -10 4 0 6 -3 10 -7 9 -5 -1 -23 6 -42 16 -19 10 -37 14 -42 9 -5 -5 -34 -6
-64 -3 -30 3 -62 2 -70 -3 -9 -5 -23 -6 -31 -3 -9 4 -14 -2 -15 -17 0 -21 -1
-21 -10 -2 -7 15 -8 10 -5 -22 2 -23 -1 -47 -8 -53 -8 -9 -8 -14 2 -17 19 -7
14 -23 -10 -33 -19 -7 -19 -9 -5 -9 10 -1 15 -5 12 -11 -3 -5 -2 -10 3 -10 12
0 9 -146 -2 -157 -5 -4 -7 -1 -4 7 3 9 0 24 -8 35 -8 10 -14 26 -14 36 0 9 -7
20 -16 23 -8 3 -13 10 -10 14 3 5 -2 21 -10 37 -12 23 -12 30 -2 37 10 6 9 8
-3 8 -9 0 -20 7 -23 16 -4 9 -2 13 5 8 7 -4 7 1 -1 16 -6 12 -10 31 -7 41 4
16 1 19 -14 14 -12 -4 -19 -2 -19 7 0 31 -124 54 -155 28 -8 -7 -15 -20 -15
-29 0 -14 -2 -14 -11 -1 -8 12 -9 10 -4 -9 5 -14 2 -26 -5 -31 -7 -4 -13 -21
-13 -36 0 -16 -2 -23 -4 -16 -3 6 -9 12 -14 12 -12 0 -7 -50 6 -50 5 0 3 -6
-5 -13 -8 -7 -16 -19 -18 -27 -2 -8 -8 -17 -13 -21 -5 -3 -7 -14 -3 -25 4 -14
3 -15 -4 -5 -8 11 -10 11 -14 0 -2 -7 -9 -9 -17 -5 -9 6 -10 11 -2 15 8 5 7
16 -1 39 -10 24 -10 37 -1 51 7 11 8 23 2 32 -5 8 -9 19 -9 24 0 6 5 3 10 -5
7 -11 10 -2 10 33 0 40 -3 47 -19 47 -26 0 -36 17 -14 23 12 3 8 5 -9 6 -14 0
-34 4 -44 8 -10 4 -15 2 -11 -3 3 -5 -2 -11 -11 -11 -9 -1 -28 -4 -42 -5 -27
-3 -43 -26 -30 -43 4 -5 7 -29 7 -52 -2 -52 -18 -61 -69 -36 -35 17 -38 21
-39 63 -1 25 -1 48 0 53 0 4 -4 7 -10 7 -8 0 -7 5 1 16 11 12 11 15 -1 12 -8
-2 -18 -7 -22 -13 -6 -7 -10 -7 -13 0 -2 6 -24 9 -49 7 -25 -2 -53 -1 -63 4
-9 4 -19 8 -22 9 -3 1 -17 7 -32 13 -40 16 -118 24 -118 11 0 -6 -6 -9 -14 -6
-7 3 -19 0 -25 -6 -9 -9 -11 -8 -5 6 5 13 2 16 -10 11 -9 -3 -16 -12 -16 -19
0 -7 -9 -15 -21 -18 -12 -3 -18 -10 -14 -16 3 -7 0 -8 -9 -5 -9 3 -16 1 -16
-5 0 -9 -6 -9 -23 0 -20 11 -21 11 -8 -5 8 -9 10 -20 6 -24 -4 -4 -10 -1 -12
6 -3 6 -9 12 -14 12 -4 0 -6 -6 -3 -13 2 -7 -5 -24 -16 -37 -12 -14 -18 -31
-14 -42 3 -10 1 -18 -5 -18 -11 0 -21 -27 -27 -77 -3 -20 -7 -39 -9 -44 -3 -4
-1 -10 4 -13 5 -3 8 -22 6 -41 -2 -19 1 -37 6 -40 5 -4 9 -18 9 -33 0 -21 2
-24 10 -12 8 12 10 11 10 -7 0 -13 5 -23 10 -23 6 0 10 -7 10 -15 0 -18 50
-71 62 -67 4 1 8 -5 8 -13 0 -8 5 -15 11 -15 5 0 8 4 5 9 -4 5 3 7 15 4 16 -4
17 -8 7 -14 -9 -6 -2 -9 20 -9 17 0 32 -4 32 -9 0 -5 15 -9 33 -8 17 0 51 -2
75 -5 32 -5 45 -3 48 7 3 8 13 11 21 8 10 -4 14 -2 10 4 -4 6 4 13 18 15 13 3
22 1 19 -3 -3 -5 -1 -9 5 -9 5 0 13 9 16 20 3 11 17 23 30 26 14 3 22 11 19
19 -4 9 1 12 14 8 30 -7 56 48 55 117 -1 41 1 48 7 30 7 -23 8 -22 9 10 1 26
4 31 13 22 7 -7 27 -12 45 -12 18 0 33 -5 33 -11 0 -5 -4 -8 -9 -5 -14 9 -7
-28 7 -39 10 -8 11 -17 2 -39 -8 -23 -8 -31 2 -37 21 -13 26 2 30 89 l3 82
-92 0 c-84 0 -91 -1 -86 -19 4 -16 -2 -19 -41 -22 l-46 -4 0 142 0 143 45 0
45 0 0 -82 0 -83 86 2 87 1 -2 81 -2 81 48 0 48 0 0 -202 0 -203 -49 -5 c-58
-6 -78 -30 -22 -26 20 2 36 -1 36 -7 0 -6 8 -3 18 6 22 20 48 22 55 4 5 -14
56 -15 78 -2 8 5 10 4 5 -3 -5 -8 -2 -10 8 -6 9 3 16 10 16 15 0 5 11 9 25 9
22 0 24 3 18 31 l-6 31 40 -3 c31 -3 39 -1 35 9 -4 12 -1 12 16 1 12 -7 19
-15 17 -17 -2 -2 6 -14 18 -27 12 -12 27 -31 34 -41 10 -17 13 -17 22 -4 6 8
11 10 11 5 0 -12 46 -13 57 -2 11 12 25 8 17 -5 -6 -10 -5 -10 8 0 12 10 20 8
42 -13 21 -19 26 -21 22 -8 -5 14 1 18 27 20 17 2 33 7 35 13 2 6 9 7 14 4 7
-4 8 -2 4 4 -4 7 -2 12 3 12 6 0 11 10 12 23 0 12 3 16 6 9 2 -6 10 -9 15 -6
8 5 9 -3 5 -24 -4 -17 -2 -34 3 -37 5 -3 7 1 4 9 -5 14 -1 14 37 3 55 -15 140
-8 118 10 -8 6 -39 13 -68 15 l-54 3 -46 87 c-25 48 -49 88 -52 88 -4 0 -4
-41 -1 -90 l5 -90 -46 0 c-25 0 -54 -3 -64 -6 -17 -6 -17 -6 0 7 17 13 18 31
15 213 l-3 198 108 -4 c108 -3 109 -4 138 -36 51 -57 35 -148 -32 -176 l-28
-12 60 -92 c32 -51 63 -90 69 -87 5 3 6 13 3 22 -5 12 -3 14 7 8 9 -5 11 -4 6
4 -4 6 -11 9 -16 6 -5 -3 -14 4 -20 16 -7 12 -8 19 -2 15 6 -3 5 4 -1 18 -7
13 -16 22 -21 19 -5 -4 -6 -1 -1 7 4 7 2 16 -6 21 -20 12 -20 49 0 57 9 3 19
10 23 16 7 10 11 -26 12 -91 0 -13 6 -23 14 -23 7 0 10 -4 7 -10 -3 -5 -1 -10
5 -10 6 0 15 -11 20 -24 5 -13 18 -27 29 -31 12 -3 21 -10 21 -14 0 -4 16 -13
35 -21 19 -8 35 -17 35 -20 0 -4 38 -6 85 -6 47 1 85 -3 85 -7 0 -5 12 5 26
22 14 17 31 31 38 31 13 0 70 63 72 80 1 6 2 14 3 19 0 5 7 16 14 23 16 15 30
78 18 78 -4 0 -8 6 -9 13 -1 6 -4 29 -7 50 -3 22 -1 37 5 37 5 0 10 -4 10 -9
0 -5 10 -11 23 -13 18 -2 23 -10 25 -47 2 -28 -1 -47 -10 -52 -10 -7 -9 -9 5
-9 10 0 17 -8 17 -20 0 -11 -4 -20 -9 -20 -5 0 -8 -11 -7 -25 0 -14 4 -25 9
-25 4 0 7 -5 7 -11 0 -5 -4 -7 -10 -4 -5 3 -10 1 -10 -4 0 -6 5 -11 11 -11 8
0 8 -4 0 -14 -10 -11 -9 -21 4 -45 8 -17 18 -31 21 -31 3 0 2 5 -1 10 -3 6 -2
10 3 10 6 0 12 -7 16 -15 7 -20 62 -20 70 0 3 8 12 15 20 15 8 0 20 15 27 33
7 17 15 36 17 41 3 5 -1 5 -9 0 -11 -6 -12 -5 -2 7 10 12 10 18 0 28 -9 9 -9
14 3 21 10 7 11 10 3 10 -24 0 -9 164 15 166 6 1 19 2 27 3 17 1 34 30 39 68
2 15 7 37 11 48 6 17 5 18 -5 5 -10 -12 -11 -11 -6 9 4 18 2 21 -7 12 -16 -16
-34 -14 -34 4 0 8 6 15 13 15 18 0 28 20 26 53 -1 16 2 26 7 23 12 -8 11 65
-1 81 -6 7 -5 20 2 34 8 14 8 19 1 15 -7 -5 -9 -1 -5 8 3 9 10 13 15 10 5 -3
6 2 2 12 -5 14 -3 15 15 5 31 -17 40 -13 13 5 -16 12 -26 13 -34 5 -8 -8 -15
0 -27 27 -12 26 -14 39 -6 44 6 4 -1 8 -16 8 -21 0 -26 4 -21 16 3 8 0 26 -7
40 -18 33 -78 32 -86 -3z m66 -37 c0 -38 4 -48 30 -66 l30 -21 0 -120 c0 -112
-1 -119 -20 -119 -16 0 -20 7 -21 33 -1 17 -2 43 -3 57 -1 20 -7 26 -31 28
-51 5 -59 10 -44 28 7 9 24 14 43 12 44 -4 47 29 7 74 -22 25 -30 45 -31 78
-2 61 -3 60 20 60 17 0 20 -7 20 -44z m-389 -65 l29 -29 0 -141 c0 -78 -2
-141 -4 -141 -2 0 -11 -3 -20 -6 -14 -5 -16 10 -16 132 0 158 -6 174 -72 174
-36 0 -38 -2 -38 -30 0 -21 5 -30 17 -30 30 0 53 -31 53 -72 0 -51 -27 -78
-80 -78 l-40 0 2 105 3 105 -45 0 c-46 0 -70 -13 -70 -37 0 -8 8 -16 18 -20 9
-3 27 -15 40 -26 49 -45 9 -127 -63 -127 l-35 0 0 100 c0 94 2 103 25 125 23
24 30 25 145 25 121 0 122 0 151 -29z m284 4 c41 -41 25 -104 -33 -126 -52
-20 -113 36 -99 91 6 25 -24 28 -43 5 -20 -24 -14 -165 8 -181 12 -9 56 -13
145 -14 120 0 127 -1 127 -20 0 -19 -7 -20 -130 -20 -183 0 -201 12 -202 135
0 104 0 104 28 130 24 22 36 25 101 25 65 0 77 -3 98 -25z m-131 -128 c-3 -8
2 -20 11 -27 13 -10 15 -10 15 6 0 17 1 17 16 -2 8 -10 12 -12 8 -4 -7 13 -5
13 9 1 14 -11 17 -11 18 0 0 8 2 9 5 3 3 -6 16 -9 29 -6 20 3 25 0 24 -14 0
-13 -2 -14 -6 -5 -3 7 -8 9 -12 4 -8 -14 -71 -25 -71 -13 0 5 -7 7 -15 4 -26
-11 -59 39 -38 59 10 11 13 8 7 -6z m175 -36 c21 -18 21 -19 1 -24 -11 -3 -20
-1 -20 3 0 5 -3 15 -6 24 -8 21 -2 20 25 -3z m-389 -142 l42 -24 -29 -12 c-15
-7 -41 -12 -58 -12 -49 2 -51 0 -22 -16 26 -13 32 -13 65 4 20 10 54 24 74 30
20 7 54 23 74 37 20 14 39 22 42 19 3 -3 1 -42 -5 -86 -16 -122 -45 -157 -182
-219 -56 -25 -61 -25 -61 3 0 26 26 67 60 95 14 11 22 23 19 27 -10 9 -68 -44
-86 -78 -11 -23 -14 -47 -10 -96 l6 -66 -17 35 c-23 50 -22 174 2 220 10 19
24 38 30 42 6 4 7 10 3 15 -5 4 -11 3 -15 -3 -34 -50 -41 -56 -61 -49 -33 10
-78 53 -102 95 -12 22 -26 37 -30 35 -4 -3 -5 3 -3 12 4 16 18 18 113 17 94
-1 114 -4 151 -25z m-1510 1 c19 -6 42 -15 50 -20 13 -9 13 -12 -2 -20 -15 -9
-15 -13 5 -49 24 -43 18 -64 -10 -36 -65 65 -192 55 -251 -20 -95 -120 -11
-305 138 -305 42 0 108 29 134 59 18 20 18 22 2 40 -16 18 -15 19 51 23 37 3
69 5 70 4 0 -1 -4 -30 -11 -66 -7 -41 -14 -60 -20 -52 -6 10 -19 3 -51 -27
-43 -40 -120 -71 -176 -71 -92 0 -200 73 -240 162 -28 64 -30 163 -5 220 54
124 193 193 316 158z m820 -237 l77 -203 -53 0 -52 0 -14 43 -15 42 -78 0 -79
0 -12 -40 c-11 -39 -11 -40 -62 -43 l-51 -3 24 63 c13 35 48 127 77 206 l53
143 54 -3 53 -3 78 -202z m1200 166 l0 -41 -50 4 -50 3 0 -167 0 -168 -47 0
-48 0 3 165 3 165 -49 0 c-27 0 -51 2 -53 5 -3 2 -3 20 -1 40 l4 35 144 0 144
0 0 -41z m-759 -55 c-7 -11 -11 -13 -8 -4 2 8 -2 21 -10 28 -7 7 -13 19 -13
25 0 6 10 2 21 -10 17 -17 19 -24 10 -39z m-1246 -8 c15 -1 20 -7 18 -29 -1
-19 3 -27 15 -28 9 0 12 -3 6 -5 -9 -4 -9 -16 -1 -46 7 -30 7 -50 -2 -74 -7
-19 -9 -39 -5 -45 4 -8 3 -9 -4 -5 -7 4 -12 1 -12 -9 0 -9 -5 -13 -11 -10 -6
4 -22 -3 -35 -16 -15 -14 -28 -19 -32 -14 -4 6 -25 10 -47 10 -46 -1 -78 21
-54 36 11 7 11 9 -3 9 -10 0 -19 -1 -21 -2 -6 -6 -35 27 -30 35 2 4 1 7 -4 7
-13 0 -15 83 -2 107 6 12 18 19 25 16 8 -3 14 0 14 6 0 6 -4 11 -10 11 -5 0
-10 5 -10 11 0 5 5 7 10 4 6 -3 10 -3 10 2 0 4 14 14 30 21 17 8 28 18 25 22
-3 5 3 7 15 5 11 -2 22 0 25 6 4 5 20 2 38 -8 17 -9 41 -16 52 -17z m1328 2
c18 -13 34 -24 36 -26 3 -1 -1 -8 -7 -14 -24 -24 -13 -109 22 -172 35 -65 54
-79 63 -48 3 14 16 21 45 25 49 7 75 29 99 85 10 23 23 42 28 42 6 0 21 16 34
35 13 19 27 32 30 28 14 -13 6 -109 -12 -149 -10 -22 -35 -54 -56 -71 -141
-117 -358 -23 -358 156 -1 50 23 131 38 131 3 0 20 -10 38 -22z"/>
<path d="M1880 870 c0 -42 9 -50 30 -25 14 17 5 51 -15 59 -12 4 -15 -4 -15
-34z"/>
<path d="M2039 905 c-3 -2 -3 -20 -1 -39 3 -25 8 -33 18 -29 18 7 18 47 1 62
-8 6 -16 9 -18 6z"/>
<path d="M2362 988 c-17 -17 -15 -32 7 -52 18 -17 20 -17 40 3 17 17 19 25 11
41 -12 22 -40 26 -58 8z"/>
<path d="M1266 568 c-16 -53 -36 -117 -41 -129 -4 -11 6 -14 50 -14 30 0 55 2
55 5 0 3 -9 29 -20 58 -11 29 -20 61 -20 72 0 22 -18 27 -24 8z"/>
<path d="M1616 558 c1 -32 6 -53 13 -52 6 1 22 2 35 3 28 1 56 25 56 47 0 25
-39 54 -72 54 l-33 0 1 -52z"/>
</g>
</svg>
