<?xml version="1.0" standalone="no"?>
<!DOCTYPE svg PUBLIC "-//W3C//DTD SVG 20010904//EN"
 "http://www.w3.org/TR/2001/REC-SVG-20010904/DTD/svg10.dtd">
<svg version="1.0" xmlns="http://www.w3.org/2000/svg"
 width="512.000000pt" height="512.000000pt" viewBox="0 0 512.000000 512.000000"
 preserveAspectRatio="xMidYMid meet">
<metadata>
Created by potrace 1.10, written by Peter Selinger 2001-2011
</metadata>
<g transform="translate(0.000000,512.000000) scale(0.100000,-0.100000)"
fill="#01b236" stroke="none">
<path d="M1729 5087 c-94 -39 -149 -88 -212 -187 -19 -30 -45 -65 -58 -77 -39
-36 -110 -63 -165 -63 -184 -1 -336 -90 -413 -242 -29 -58 -34 -81 -41 -176
-5 -61 -14 -121 -20 -134 -28 -52 -66 -92 -129 -132 -122 -79 -190 -178 -210
-307 -15 -89 0 -165 50 -269 27 -56 43 -104 46 -142 5 -51 2 -64 -41 -156 -26
-55 -51 -126 -56 -158 -26 -159 61 -343 200 -421 60 -35 97 -69 127 -120 20
-34 26 -62 33 -153 7 -94 13 -121 38 -173 17 -34 45 -78 61 -98 60 -72 166
-126 282 -146 l47 -8 -221 -380 c-243 -419 -249 -434 -194 -481 35 -30 47 -30
155 0 113 32 394 108 406 110 10 1 8 10 85 -279 66 -247 80 -275 139 -275 44
0 67 24 135 143 36 61 146 253 246 424 99 172 191 333 203 358 21 41 38 57 38
36 0 -6 74 -137 163 -293 90 -156 208 -359 261 -453 54 -93 109 -180 122 -193
32 -28 76 -28 108 1 19 17 34 57 66 177 46 172 89 329 95 346 3 11 76 -7 421
-102 98 -27 131 -25 161 8 40 45 29 70 -204 473 l-221 380 62 12 c168 32 272
112 338 260 14 31 23 82 29 154 10 146 36 192 148 263 120 78 190 179 209 302
17 104 4 166 -60 298 -53 111 -52 150 7 277 76 161 79 273 13 404 -37 75 -85
125 -169 180 -112 73 -138 118 -149 265 -6 93 -12 117 -41 176 -75 154 -227
244 -413 244 -61 0 -139 34 -177 76 -14 16 -40 52 -58 81 -43 68 -110 129
-179 161 -52 25 -68 27 -182 27 l-125 0 -85 -44 c-75 -39 -93 -44 -150 -44
-57 0 -75 5 -150 44 -84 44 -86 44 -200 47 -102 2 -121 0 -171 -21z m235 -8
c39 -12 103 -38 141 -57 63 -33 78 -36 145 -36 65 1 84 5 145 36 39 20 102 45
142 57 l72 21 72 -19 c39 -11 92 -30 118 -43 48 -22 161 -130 161 -153 0 -23
90 -113 134 -135 31 -15 76 -24 149 -29 125 -10 198 -39 266 -104 84 -82 109
-138 121 -278 12 -154 47 -214 172 -295 141 -93 196 -202 186 -372 -4 -70 -10
-92 -49 -169 -40 -80 -44 -95 -44 -159 1 -64 5 -80 45 -160 l45 -89 0 -110 c0
-98 -3 -116 -26 -165 -35 -74 -78 -122 -163 -180 -39 -26 -81 -58 -93 -71 -40
-44 -65 -117 -73 -218 -5 -53 -14 -112 -21 -131 -21 -59 -87 -148 -135 -181
-50 -34 -139 -69 -177 -69 -34 0 -85 -19 -90 -34 -5 -13 27 -72 296 -538 150
-260 163 -299 105 -321 -13 -5 -177 36 -495 122 -22 6 -37 5 -48 -3 -11 -8
-40 -99 -81 -252 -35 -131 -70 -249 -76 -262 -14 -27 -49 -38 -75 -23 -19 10
-52 65 -378 631 -87 151 -168 286 -181 299 -23 24 -24 24 -43 7 -11 -10 -66
-98 -122 -195 -56 -97 -132 -228 -169 -291 -37 -63 -109 -189 -161 -279 -99
-172 -119 -193 -164 -173 -27 12 -25 6 -100 292 -63 239 -65 244 -98 248 -15
2 -68 -8 -119 -22 -422 -117 -438 -119 -438 -50 0 38 -1 36 235 444 225 389
217 370 164 389 -18 6 -43 11 -56 11 -41 0 -132 37 -185 76 -28 21 -68 64 -89
97 -41 63 -56 120 -62 233 -7 121 -51 192 -165 267 -84 55 -126 103 -165 184
-28 60 -29 70 -25 166 3 96 6 107 47 191 43 88 43 90 39 175 -4 76 -9 94 -44
159 -35 68 -39 81 -42 170 -3 81 0 106 17 154 31 80 81 141 165 197 130 88
164 147 177 309 10 125 35 185 106 256 76 74 150 106 277 117 59 5 122 15 140
23 49 21 101 70 151 147 70 105 134 150 267 189 82 23 70 23 152 -1z"/>
<path d="M1775 4946 c-50 -23 -135 -106 -135 -132 0 -28 -101 -122 -170 -158
-60 -32 -82 -38 -153 -42 -147 -9 -216 -37 -272 -109 -37 -50 -46 -80 -55
-193 -7 -82 -15 -117 -39 -167 -35 -76 -98 -147 -160 -182 -113 -64 -161 -141
-161 -257 0 -70 3 -82 47 -165 l46 -89 1 -104 0 -104 -47 -92 c-44 -86 -47
-97 -47 -167 0 -57 5 -86 21 -118 21 -42 96 -127 112 -127 16 0 113 -78 140
-114 54 -70 78 -141 87 -259 7 -87 14 -117 34 -151 50 -85 137 -135 251 -142
86 -6 185 -24 185 -34 0 -4 10 -10 23 -13 36 -10 131 -101 157 -152 40 -78 98
-125 191 -154 44 -14 99 -14 99 -1 0 6 11 10 25 10 14 0 52 14 85 30 33 17 61
30 62 29 2 0 17 5 33 11 65 25 142 35 160 20 9 -7 18 -10 21 -7 3 3 22 -2 42
-10 20 -8 37 -14 37 -12 0 1 28 -12 63 -29 34 -18 74 -32 87 -32 14 0 25 -5
25 -11 0 -23 142 7 189 40 37 27 101 100 101 117 0 19 112 129 147 144 17 8
30 17 28 21 -5 7 108 27 195 33 112 8 196 57 246 142 19 33 27 62 30 121 8
132 30 203 82 276 32 45 129 127 150 127 17 0 93 90 113 133 12 29 19 65 19
114 0 62 -4 80 -33 135 -50 93 -59 130 -60 234 0 93 1 96 47 187 42 84 46 98
45 162 0 39 -6 84 -12 102 -17 46 -82 120 -126 142 -130 67 -221 221 -221 375
0 113 -54 207 -145 253 -37 20 -73 27 -153 34 -83 6 -117 14 -167 38 -74 34
-149 99 -176 154 -54 105 -151 167 -261 167 -55 0 -75 -6 -139 -39 -41 -21
-95 -44 -119 -51 -51 -14 -182 -14 -207 -1 -133 69 -193 91 -254 91 -46 0 -78
-7 -114 -24z m251 -43 c83 -44 151 -63 224 -63 73 0 141 19 224 63 59 32 79
37 133 37 108 0 171 -40 239 -151 81 -133 220 -209 384 -209 110 0 198 -56
238 -150 8 -19 18 -81 22 -137 6 -83 13 -114 38 -168 34 -71 115 -161 173
-190 47 -24 97 -72 122 -120 16 -30 21 -57 21 -110 0 -63 -4 -78 -42 -151 -78
-148 -77 -269 1 -419 37 -71 41 -88 41 -150 1 -107 -35 -162 -155 -240 -128
-83 -199 -208 -199 -351 0 -169 -100 -284 -248 -284 -83 0 -153 -15 -217 -47
-77 -37 -126 -81 -179 -163 -78 -117 -130 -152 -232 -153 -53 -1 -73 5 -131
35 -173 90 -293 90 -466 0 -58 -30 -78 -36 -131 -35 -101 1 -157 37 -231 152
-90 141 -222 211 -398 211 -147 0 -247 114 -247 284 0 111 -43 210 -124 292
-29 28 -70 61 -92 72 -90 47 -139 126 -138 227 0 63 4 78 42 151 78 148 77
269 -1 419 -37 71 -41 88 -41 150 0 53 5 80 21 110 25 48 75 96 122 120 58 29
139 119 173 190 25 54 32 85 38 170 5 74 14 116 30 149 41 86 125 135 230 136
165 1 303 76 384 208 68 112 129 151 237 152 57 0 75 -5 135 -37z"/>
<path d="M2140 4639 c-145 -11 -301 -51 -425 -111 -71 -34 -85 -50 -85 -98 0
-46 33 -80 78 -80 17 0 71 16 118 36 143 59 245 78 424 78 122 0 174 -5 246
-21 549 -128 921 -636 873 -1194 -33 -393 -268 -735 -626 -914 -411 -205 -925
-128 -1262 190 -342 323 -449 831 -265 1260 19 45 34 91 34 104 0 28 -51 81
-79 81 -50 0 -72 -19 -106 -92 -160 -350 -151 -769 26 -1120 133 -264 363
-483 634 -601 204 -90 434 -128 637 -107 532 54 956 393 1123 893 164 494 4
1060 -393 1391 -277 230 -595 332 -952 305z m201 -30 c63 -1 117 -5 120 -10 3
-5 25 -10 50 -11 24 0 46 -4 49 -7 3 -3 56 -23 118 -44 63 -21 135 -51 162
-67 27 -16 51 -26 54 -23 3 4 6 1 6 -5 0 -7 6 -12 14 -12 8 0 16 -4 18 -8 2
-5 31 -27 65 -50 167 -113 338 -326 422 -527 53 -127 63 -158 80 -255 36 -205
27 -402 -27 -610 -18 -68 -81 -206 -132 -290 -100 -162 -215 -286 -362 -387
-111 -77 -311 -173 -359 -173 -11 0 -19 -4 -19 -8 0 -15 -242 -45 -356 -45
-112 1 -321 28 -339 44 -5 5 -16 9 -26 9 -38 0 -276 110 -338 157 -243 181
-372 341 -474 588 -58 142 -79 247 -84 425 -5 145 2 235 26 335 25 105 34 132
68 206 31 68 40 80 67 88 70 19 88 -36 44 -136 -15 -34 -40 -106 -55 -160 -26
-91 -28 -111 -28 -288 0 -176 2 -197 27 -287 116 -413 407 -708 823 -834 80
-24 109 -27 260 -30 196 -4 248 3 394 52 370 123 655 428 758 811 25 90 27
114 27 288 0 174 -2 198 -27 288 -66 244 -227 485 -423 633 -221 166 -466 242
-744 230 -152 -6 -249 -26 -383 -80 -120 -49 -145 -47 -160 11 -9 41 46 76
188 120 28 8 55 19 61 24 6 5 14 6 17 2 4 -3 13 -1 21 6 8 6 18 11 22 10 28
-5 84 2 79 10 -3 6 28 10 76 10 45 0 84 2 87 5 2 3 8 4 12 1 4 -2 58 -5 121
-6z"/>
<path d="M1535 4349 c-66 -54 -82 -69 -68 -69 6 0 35 19 66 43 30 23 64 47 74
54 17 11 17 12 -2 12 -11 0 -42 -18 -70 -40z"/>
<path d="M1347 4279 c-27 -16 -49 -73 -38 -101 24 -64 99 -81 146 -33 68 67
-26 182 -108 134z m67 -29 c22 -8 26 -16 26 -49 0 -41 -11 -51 -54 -51 -31 0
-46 19 -46 57 0 31 6 39 47 52 1 1 13 -3 27 -9z"/>
<path d="M1265 4088 c-41 -48 -69 -97 -61 -106 3 -3 7 -3 9 -1 14 19 58 81 81
112 39 51 16 47 -29 -5z"/>
<path d="M2345 4016 c-55 -26 -70 -41 -138 -137 -25 -36 -81 -98 -123 -138
-68 -63 -81 -72 -103 -65 -14 4 -109 9 -210 11 -181 4 -184 4 -221 -21 -70
-46 -70 -46 -70 -498 0 -455 -1 -451 76 -495 36 -21 51 -23 215 -23 172 0 177
1 213 25 l37 25 67 -22 c62 -21 88 -22 380 -26 358 -4 382 0 460 71 85 79 87
87 90 377 4 286 0 311 -57 386 -56 74 -129 107 -243 108 -48 1 -88 4 -88 8 0
3 11 39 25 80 32 93 32 158 1 223 -28 60 -56 87 -116 114 -61 28 -132 27 -195
-3z m214 -43 c92 -57 113 -156 64 -295 -27 -75 -27 -77 -9 -97 16 -18 31 -21
100 -21 125 0 214 -50 257 -145 16 -35 19 -69 19 -293 0 -192 -3 -261 -14
-286 -19 -46 -72 -104 -120 -129 -40 -21 -51 -22 -361 -22 -309 0 -323 1 -396
24 l-76 24 -46 -27 c-46 -27 -46 -27 -222 -24 l-177 3 -34 37 -34 38 -1 267
c-1 514 0 545 20 573 36 50 73 60 233 60 83 0 167 -5 192 -12 37 -10 50 -9 71
2 45 24 169 153 217 227 45 69 89 105 146 124 46 14 122 2 171 -28z"/>
<path d="M2409 3886 c-13 -6 -46 -43 -72 -81 -59 -86 -141 -170 -229 -236 -36
-27 -69 -56 -72 -65 -11 -28 -7 -614 4 -635 9 -15 63 -52 72 -48 2 0 17 -5 33
-12 32 -14 559 -26 622 -14 37 7 83 51 100 97 7 21 12 106 12 232 1 184 -1
203 -20 244 -37 75 -58 82 -249 82 -185 0 -210 7 -210 59 0 21 9 36 34 54 27
21 39 44 65 121 17 52 31 108 31 125 0 60 -68 104 -121 77z m76 -41 c14 -13
25 -30 25 -36 0 -30 -74 -219 -86 -219 -22 0 -54 -51 -54 -85 0 -25 8 -40 31
-59 30 -26 32 -26 203 -26 251 0 246 6 246 -301 0 -195 -2 -214 -20 -244 -11
-18 -35 -38 -52 -44 -40 -14 -481 -14 -568 0 -36 5 -84 19 -107 29 l-43 19 0
310 0 309 63 45 c77 55 180 162 235 244 60 89 85 100 127 58z"/>
<path d="M1645 3536 c-17 -12 -18 -33 -18 -365 0 -247 3 -355 11 -363 7 -7 57
-11 133 -12 l122 -1 15 35 c23 53 10 675 -15 702 -14 15 -32 18 -123 18 -74 0
-112 -4 -125 -14z m245 -366 l0 -350 -120 0 -120 0 0 350 0 350 120 0 120 0 0
-350z"/>
<path d="M1412 1873 c-11 -16 -31 -50 -46 -78 -15 -27 -40 -71 -55 -97 -16
-25 -40 -66 -54 -90 -13 -23 -34 -59 -46 -78 -11 -19 -24 -42 -28 -50 -4 -8
-31 -55 -60 -105 -29 -49 -53 -92 -53 -96 0 -4 7 -12 15 -19 24 -20 71 -11
260 50 17 5 44 12 60 15 119 24 133 17 159 -86 46 -186 80 -295 96 -312 17
-18 18 -18 37 10 11 15 77 127 147 248 69 121 130 227 136 235 5 8 25 42 44
75 66 115 58 143 -34 118 -70 -18 -176 -12 -248 15 -81 31 -148 88 -198 169
-41 66 -79 103 -103 103 -5 0 -18 -12 -29 -27z m109 -89 c106 -166 283 -245
457 -203 26 7 53 16 60 22 23 18 23 0 0 -35 -13 -19 -99 -168 -193 -331 -93
-162 -173 -293 -176 -289 -3 4 -23 72 -43 152 -55 210 -67 242 -98 259 -31 18
-44 16 -276 -47 -84 -23 -155 -42 -157 -42 -4 0 40 76 206 363 39 67 87 150
106 185 35 62 36 63 55 45 12 -10 38 -46 59 -79z"/>
<path d="M3040 1893 c-22 -8 -42 -31 -82 -93 -64 -100 -137 -157 -236 -184
-72 -20 -168 -19 -226 1 -29 10 -42 10 -52 2 -28 -23 -32 -16 171 -364 32 -55
66 -113 75 -130 55 -97 121 -205 129 -209 18 -11 40 32 66 129 14 55 36 136
48 179 26 98 45 121 96 112 37 -6 68 -13 99 -21 71 -19 95 -26 157 -44 83 -25
118 -26 135 -6 10 12 -9 52 -110 227 -177 308 -234 401 -245 404 -5 1 -17 0
-25 -3z m47 -65 c28 -51 226 -394 292 -507 26 -44 29 -53 14 -48 -116 34 -366
97 -384 97 -61 0 -70 -19 -143 -299 -32 -123 -46 -163 -46 -132 0 14 -344 616
-368 644 -22 25 -10 30 26 11 18 -8 65 -18 105 -21 156 -12 303 64 388 200 28
45 78 107 85 107 1 0 15 -24 31 -52z"/>
</g>
</svg>
