<?xml version="1.0" standalone="no"?>
<!DOCTYPE svg PUBLIC "-//W3C//DTD SVG 20010904//EN"
 "http://www.w3.org/TR/2001/REC-SVG-20010904/DTD/svg10.dtd">
<svg version="1.0" xmlns="http://www.w3.org/2000/svg"
 width="258.000000pt" height="263.000000pt" viewBox="0 0 258.000000 263.000000"
 preserveAspectRatio="xMidYMid meet">
<metadata>
Created by potrace 1.10, written by Peter Selinger 2001-2011
</metadata>
<g transform="translate(0.000000,263.000000) scale(0.100000,-0.100000)"
fill="#09be15" stroke="none">
<path d="M780 1357 c0 -881 0 -892 -20 -905 -11 -7 -20 -19 -20 -27 0 -13 70
-15 560 -15 490 0 560 2 560 15 0 8 -9 20 -20 27 -20 13 -20 24 -20 905 l0
893 -520 0 -520 0 0 -893z m1030 853 c0 -20 -7 -20 -510 -20 -503 0 -510 0
-510 20 0 20 7 20 510 20 503 0 510 0 510 -20z m-970 -889 l0 -857 -25 -2 -25
-2 0 854 c0 883 -1 863 38 863 9 0 12 -178 12 -856z m910 0 c0 -670 -3 -850
-12 -854 -7 -2 -210 -4 -450 -4 l-438 1 0 855 0 856 450 -3 450 -2 0 -849z
m60 -7 l0 -854 -25 0 -25 0 0 854 c0 806 1 855 18 859 9 2 20 2 25 0 4 -2 7
-389 7 -859z m35 -874 c4 -7 -181 -10 -547 -10 -361 0 -548 4 -538 10 21 13
1077 13 1085 0z"/>
<path d="M1038 2203 c123 -2 321 -2 440 0 119 1 19 2 -223 2 -242 0 -340 -1
-217 -2z"/>
<path d="M1728 2203 c12 -2 32 -2 45 0 12 2 2 4 -23 4 -25 0 -35 -2 -22 -4z"/>
<path d="M865 1320 c0 -465 1 -655 2 -423 2 233 2 613 0 845 -1 233 -2 43 -2
-422z"/>
<path d="M968 2153 c45 -2 119 -2 165 0 45 1 8 3 -83 3 -91 0 -128 -2 -82 -3z"/>
<path d="M1333 2153 c64 -2 170 -2 235 0 64 1 11 3 -118 3 -129 0 -182 -2
-117 -3z"/>
<path d="M1735 1320 c0 -465 1 -655 2 -423 2 233 2 613 0 845 -1 233 -2 43 -2
-422z"/>
<path d="M1586 2116 c5 -13 -12 -16 -118 -18 l-123 -3 -3 -199 c-2 -174 -5
-201 -20 -213 -9 -8 -11 -12 -4 -8 6 3 12 2 12 -2 0 -5 -6 -15 -12 -23 -11
-12 -10 -12 5 -1 9 7 17 20 17 27 0 10 29 14 128 16 l127 3 2 212 c1 118 -3
215 -8 218 -5 4 -6 -1 -3 -9z m-6 -226 l0 -191 -110 3 -111 3 -2 188 -2 187
113 0 112 0 0 -190z"/>
<path d="M1005 2088 c-3 -8 -4 -99 -3 -203 l3 -190 128 -3 127 -3 -2 203 -3
203 -123 3 c-94 2 -124 0 -127 -10z m238 -195 l-2 -188 -111 -3 -110 -3 0 191
0 190 113 0 112 0 -2 -187z"/>
<path d="M1273 2025 c0 -22 2 -30 4 -17 2 12 2 30 0 40 -3 9 -5 -1 -4 -23z"/>
<path d="M965 1739 c-11 -16 -1 -19 13 -3 7 8 8 14 3 14 -5 0 -13 -5 -16 -11z"/>
<path d="M975 1680 c-3 -6 1 -7 10 -4 11 5 14 2 9 -12 -6 -15 -4 -16 6 -7 7 6
9 16 6 22 -9 14 -23 14 -31 1z"/>
<path d="M1267 1683 c-10 -9 -9 -23 1 -23 5 0 9 7 9 15 0 17 -1 18 -10 8z"/>
<path d="M1400 1669 c0 -5 5 -7 10 -4 6 3 10 8 10 11 0 2 -4 4 -10 4 -5 0 -10
-5 -10 -11z"/>
<path d="M1430 1669 c0 -5 5 -7 10 -4 6 3 10 8 10 11 0 2 -4 4 -10 4 -5 0 -10
-5 -10 -11z"/>
<path d="M1545 1670 c-3 -5 -1 -10 4 -10 6 0 11 5 11 10 0 6 -2 10 -4 10 -3 0
-8 -4 -11 -10z"/>
<path d="M1007 1643 c-4 -3 -7 -93 -7 -199 0 -227 -15 -207 150 -202 l105 3 3
203 2 202 -123 0 c-68 0 -127 -3 -130 -7z m238 -193 l0 -190 -112 0 -113 0 0
190 0 190 113 0 112 0 0 -190z"/>
<path d="M1342 1448 l3 -203 122 -3 c108 -2 121 -4 116 -19 -4 -11 -2 -14 5
-9 8 4 10 71 9 219 l-2 212 -128 3 -127 3 2 -203z m238 2 l0 -190 -112 0 -113
0 2 187 c2 104 3 189 3 191 0 1 50 2 110 2 l110 0 0 -190z"/>
<path d="M1272 1330 c0 -14 2 -19 5 -12 2 6 2 18 0 25 -3 6 -5 1 -5 -13z"/>
<path d="M1312 1325 c0 -16 2 -22 5 -12 2 9 2 23 0 30 -3 6 -5 -1 -5 -18z"/>
<path d="M1271 1284 c0 -11 3 -14 6 -6 3 7 2 16 -1 19 -3 4 -6 -2 -5 -13z"/>
<path d="M912 1254 c-43 -30 -18 -93 33 -80 25 6 43 45 31 65 -3 5 -1 12 4 14
6 3 5 4 -2 3 -7 -2 -20 0 -29 5 -10 5 -24 2 -37 -7z m46 -16 c16 -16 15 -23
-4 -42 -12 -12 -20 -13 -35 -6 -10 6 -19 16 -19 23 0 16 20 37 35 37 6 0 16
-5 23 -12z"/>
<path d="M1300 1262 c0 -4 10 -13 23 -21 22 -14 22 -14 3 8 -20 22 -26 25 -26
13z"/>
<path d="M1013 1215 c0 -8 4 -12 9 -9 5 3 6 10 3 15 -9 13 -12 11 -12 -6z"/>
<path d="M1010 865 l0 -315 290 0 290 0 0 315 0 315 -290 0 -290 0 0 -315z
m90 -2 l0 -303 -30 0 -30 0 0 298 c0 164 2 301 4 303 2 2 16 4 30 4 l26 0 0
-302z m90 0 l0 -303 -27 0 -28 0 2 302 c2 167 3 303 3 303 0 0 11 0 25 0 l25
0 0 -302z m90 0 l0 -303 -25 0 -25 0 0 303 0 302 25 0 25 0 0 -302z m90 0 l0
-303 -25 0 -25 0 0 303 0 302 25 0 25 0 0 -302z m93 -1 l2 -302 -27 0 -28 0 0
303 0 303 25 -1 26 -2 2 -301z m94 0 l2 -302 -29 0 -30 0 0 303 0 303 28 -2
27 -1 2 -301z m-530 -154 c-1 -84 -3 -16 -3 152 0 168 2 236 3 153 2 -84 2
-222 0 -305z m90 0 c-1 -84 -3 -16 -3 152 0 168 2 236 3 153 2 -84 2 -222 0
-305z m90 0 c-1 -84 -3 -16 -3 152 0 168 2 236 3 153 2 -84 2 -222 0 -305z
m99 397 c0 -30 -3 -55 -7 -55 -5 0 -8 25 -8 55 1 30 4 55 8 55 4 0 7 -25 7
-55z m91 -397 c-1 -84 -3 -16 -3 152 0 168 2 236 3 153 2 -84 2 -222 0 -305z
m90 0 c-1 -84 -3 -16 -3 152 0 168 2 236 3 153 2 -84 2 -222 0 -305z m90 0
c-1 -84 -3 -16 -3 152 0 168 2 236 3 153 2 -84 2 -222 0 -305z m-269 152 c-2
-93 -6 -170 -10 -170 -5 0 -8 77 -8 170 0 115 3 170 11 170 7 0 10 -53 7 -170z
m2 -220 c0 -5 -4 -10 -10 -10 -5 0 -10 5 -10 10 0 6 5 10 10 10 6 0 10 -4 10
-10z m-1 -63 c1 -5 -3 -5 -9 -2 -5 3 -10 16 -9 28 0 21 1 21 9 2 5 -11 9 -24
9 -28z"/>
<path d="M927 1147 c3 -4 12 -6 21 -2 8 3 19 0 24 -7 7 -10 9 -9 5 2 -2 8 -15
15 -30 15 -14 1 -23 -3 -20 -8z"/>
<path d="M1870 466 c0 -2 8 -10 18 -17 15 -13 16 -12 3 4 -13 16 -21 21 -21
13z"/>
<path d="M1885 399 c-3 -4 2 -6 10 -5 21 3 28 13 10 13 -9 0 -18 -4 -20 -8z"/>
</g>
</svg>
