 <svg  version="1.0" xmlns="http://www.w3.org/2000/svg"  width="227.000000pt" height="245.000000pt" viewBox="0 0 227.000000 245.000000"  preserveAspectRatio="xMidYMid meet">  <g transform="translate(0.000000,245.000000) scale(0.100000,-0.100000)" fill="#079905" stroke="none"> <path d="M2005 1905 c-38 -14 -78 -29 -87 -35 -24 -14 -28 -13 -28 8 0 16 -25 17 -382 17 l-383 0 0 -672 0 -671 28 -5 c15 -2 30 0 33 4 3 5 4 294 2 644 l-3 636 308 0 307 0 3 -642 2 -641 139 -49 c77 -27 147 -49 158 -49 17 0 18 28 18 740 l0 740 -22 -1 c-13 0 -54 -11 -93 -24z m85 -722 c0 -720 0 -727 -36 -694 -5 5 -34 17 -64 26 -30 10 -61 24 -68 32 -7 7 -19 13 -25 13 -7 0 -6 -4 3 -10 9 -6 10 -10 3 -10 -6 0 -18 6 -25 13 -7 8 -20 16 -27 18 -20 7 -25 49 -5 49 9 0 12 -5 8 -12 -5 -9 -2 -9 9 1 15 12 21 9 19 -9 0 -3 8 -6 18 -6 10 0 16 4 13 9 -6 10 43 -1 80 -18 15 -8 27 -10 27 -5 0 8 -31 19 -163 56 -10 3 -14 10 -10 17 9 15 10 297 1 297 -4 0 -9 -66 -11 -147 l-3 -148 -1 170 c-1 94 2 193 6 222 4 29 4 50 -1 47 -6 -4 -15 628 -11 744 1 6 -8 12 -19 12 -11 0 -16 5 -13 10 4 6 15 8 25 5 26 -8 62 -16 85 -19 24 -3 158 44 164 57 16 40 21 -110 21 -720z"/> <path d="M1990 1781 c-8 -4 -45 -16 -82 -26 -38 -10 -68 -22 -68 -27 0 -5 10 -6 23 -2 12 4 51 15 85 25 62 16 104 39 72 39 -8 0 -22 -4 -30 -9z"/> <path d="M2044 1495 c0 -137 2 -195 3 -128 2 67 2 179 0 250 -1 70 -3 16 -3 -122z"/> <path d="M2014 1490 c0 -135 2 -190 3 -122 2 67 2 177 0 245 -1 67 -3 12 -3 -123z"/> <path d="M1840 1413 l0 -298 82 5 83 4 -75 6 -75 5 0 288 c0 158 -3 287 -7 287 -5 0 -8 -134 -8 -297z"/> <path d="M2041 1178 c-1 -14 -10 -18 -41 -18 -22 0 -40 -4 -40 -10 0 -5 18 -10 40 -10 22 0 40 -4 40 -10 0 -5 7 -10 15 -10 8 0 15 7 15 15 0 8 -4 15 -9 15 -5 0 -12 10 -14 23 -3 14 -5 16 -6 5z"/> <path d="M1861 1096 c2 -2 36 -6 74 -9 44 -4 63 -3 50 3 -19 8 -133 14 -124 6z"/> <path d="M1840 974 c0 -12 3 -15 8 -7 5 9 28 9 90 1 74 -9 104 -7 91 6 -2 2 -46 7 -96 11 -87 7 -93 6 -93 -11z"/> <path d="M2044 760 c0 -96 2 -136 3 -87 2 48 2 126 0 175 -1 48 -3 8 -3 -88z"/> <path d="M2008 790 c-2 -66 0 -120 5 -120 4 0 7 54 7 120 0 66 -2 120 -4 120 -3 0 -6 -54 -8 -120z"/> <path d="M1925 650 c-11 -5 -15 -9 -10 -9 6 -1 31 -8 58 -16 l47 -14 -1 27 c0 18 -3 22 -7 12 -4 -9 -14 -15 -22 -14 -8 0 -23 2 -33 2 -10 1 -15 7 -12 12 7 11 7 11 -20 0z"/> <path d="M175 1222 l0 -672 383 0 382 0 0 673 -1 672 -382 0 -382 0 0 -673z m709 632 c11 -7 16 -16 11 -23 -4 -7 -7 -285 -7 -619 0 -524 -4 -675 -19 -652 -2 3 -6 286 -9 630 l-5 625 -3 -617 -2 -618 -247 -1 c-137 -1 -273 -3 -304 -4 l-57 -1 -5 45 c-7 61 -8 1178 0 1197 4 12 55 14 319 14 203 0 314 4 314 10 0 6 -115 10 -325 10 l-325 0 0 -642 c-1 -435 -4 -637 -11 -626 -15 26 -8 1266 8 1276 20 12 646 8 667 -4z m33 -951 c-1 -153 -2 -28 -2 277 0 305 1 430 2 278 2 -153 2 -403 0 -555z"/> <path d="M345 1722 c-10 -10 -5 -553 5 -547 6 4 10 105 10 271 l0 264 195 0 c107 0 195 3 195 8 0 8 -397 12 -405 4z"/> <path d="M760 1403 l1 -298 -203 -5 -203 -6 201 -2 c216 -2 234 2 219 48 -4 12 -2 20 5 20 6 0 9 4 6 9 -3 4 -6 126 -6 270 -1 161 -5 261 -11 261 -6 0 -9 -111 -9 -297z"/> <path d="M727 1410 l2 -270 -152 -1 c-84 0 -161 -4 -172 -9 -12 -6 47 -9 158 -9 l177 1 0 279 c0 153 -3 279 -7 279 -5 0 -7 -121 -6 -270z"/> <path d="M264 1157 c-3 -9 -3 -21 1 -27 8 -13 42 -13 50 0 9 15 25 12 25 -6 0 -8 5 -12 10 -9 6 4 8 11 5 16 -4 5 5 9 19 9 14 0 26 5 26 10 0 6 -19 10 -42 10 -24 0 -53 3 -65 6 -16 4 -25 1 -29 -9z"/> <path d="M340 835 c0 -103 4 -165 10 -165 6 0 10 59 10 158 l0 157 195 -3 c130 -2 195 1 195 8 0 6 -70 10 -205 10 l-205 0 0 -165z"/> <path d="M760 826 c0 -110 3 -156 11 -156 9 0 10 37 7 135 -3 74 -2 132 2 130 5 -3 6 4 3 15 -15 58 -23 16 -23 -124z"/> <path d="M730 830 l0 -140 -165 -1 c-186 -2 -181 -1 -191 -11 -4 -5 77 -8 179 -8 l187 0 0 150 c0 83 -2 150 -5 150 -3 0 -5 -63 -5 -140z"/> <path d="M578 653 c-104 -2 -188 -7 -188 -11 0 -11 363 -3 374 8 6 6 8 9 6 8 -3 -2 -89 -4 -192 -5z"/> </g> </svg> 